<?xml version="1.0" standalone="no"?>
<!DOCTYPE svg PUBLIC "-//W3C//DTD SVG 20010904//EN"
 "http://www.w3.org/TR/2001/REC-SVG-20010904/DTD/svg10.dtd">
<svg version="1.0" xmlns="http://www.w3.org/2000/svg"
 width="512.000000pt" height="512.000000pt" viewBox="0 0 512.000000 512.000000"
 preserveAspectRatio="xMidYMid meet">

<g transform="translate(0.000000,512.000000) scale(0.100000,-0.100000)"
fill="#000000" stroke="none">
<path d="M412 2533 c-11 -10 -106 -168 -211 -351 -212 -368 -218 -387 -153
-421 51 -27 69 -6 213 244 74 128 137 231 140 227 3 -4 18 -158 32 -342 30
-375 31 -382 101 -388 28 -3 41 2 57 20 11 13 103 169 205 348 137 243 183
332 181 354 -3 38 -46 71 -81 62 -31 -8 -39 -20 -192 -291 -65 -115 -120 -203
-121 -195 -2 8 -16 172 -32 364 -27 333 -29 350 -51 368 -28 23 -62 23 -88 1z"/>
<path d="M4241 2224 c-28 -36 -26 -60 7 -93 47 -46 576 -487 600 -500 12 -7
32 -9 43 -6 11 4 65 59 119 123 79 92 100 123 100 147 0 36 -7 48 -38 64 -37
19 -69 -1 -137 -85 -33 -40 -64 -74 -70 -74 -5 0 -131 101 -278 225 -291 244
-305 252 -346 199z"/>
<path d="M1131 1946 c-18 -10 -66 -103 -193 -375 -170 -365 -179 -391 -145
-420 27 -21 321 -151 343 -151 29 0 64 33 64 61 0 42 -24 62 -138 116 -65 30
-119 57 -121 59 -3 3 84 199 94 212 1 1 51 -20 111 -48 61 -29 119 -50 133
-48 37 5 67 51 55 85 -7 22 -31 39 -114 80 -58 29 -109 54 -115 56 -8 3 82
217 92 217 1 0 56 -25 121 -55 65 -30 126 -55 136 -55 25 0 66 45 66 73 0 36
-33 59 -185 130 -172 79 -174 79 -204 63z"/>
<path d="M3969 1891 c-16 -16 -29 -38 -29 -48 0 -10 46 -200 102 -423 70 -275
108 -410 121 -423 26 -26 75 -19 100 15 l20 27 -22 87 c-12 48 -18 90 -14 94
32 28 278 193 288 193 6 0 40 -19 75 -43 40 -27 75 -43 93 -43 52 0 86 65 55
105 -7 9 -143 105 -303 214 -456 311 -432 299 -486 245z m309 -294 c73 -49
131 -92 128 -94 -16 -16 -201 -141 -204 -138 -5 5 -81 306 -82 323 0 16 -5 19
158 -91z"/>
<path d="M3390 1640 c-57 -16 -115 -34 -127 -39 -49 -23 -47 -36 58 -427 54
-203 104 -381 110 -397 21 -51 105 -47 123 5 8 22 2 58 -27 164 -21 75 -36
138 -35 140 2 1 89 -53 193 -122 104 -68 198 -124 208 -124 26 0 67 45 67 73
0 31 -32 59 -177 156 -68 45 -123 86 -123 91 0 5 8 11 19 15 27 8 90 75 113
119 44 86 31 202 -32 278 -17 20 -58 50 -92 67 -78 40 -136 40 -278 1z m218
-124 c40 -21 62 -49 69 -88 7 -46 -21 -104 -60 -128 -29 -18 -165 -56 -171
-49 -3 5 -54 198 -58 223 -2 15 8 22 57 36 75 22 128 24 163 6z"/>
<path d="M1709 1650 c-23 -14 -31 -35 -110 -335 -59 -223 -70 -277 -65 -318 7
-67 39 -129 95 -185 64 -67 126 -94 222 -100 133 -8 242 42 301 138 32 52 181
591 171 618 -11 32 -36 52 -63 52 -56 0 -65 -19 -141 -309 -44 -166 -81 -283
-93 -298 -46 -60 -170 -82 -245 -43 -48 24 -87 70 -102 120 -11 35 -6 61 63
317 61 225 73 283 65 306 -14 42 -60 59 -98 37z"/>
<path d="M2516 1508 c-21 -30 -20 -61 3 -89 17 -21 29 -24 105 -28 l86 -3 0
-358 0 -359 27 -21 c32 -25 69 -20 96 12 15 18 17 52 17 373 l0 353 86 3 c76
4 88 7 105 28 25 30 24 66 -1 91 -19 19 -33 20 -264 20 -242 0 -245 0 -260
-22z"/>
</g>
</svg>
