<?xml version="1.0" encoding="UTF-8"?>
<!DOCTYPE svg PUBLIC "-//W3C//DTD SVG 1.1//EN" "http://www.w3.org/Graphics/SVG/1.1/DTD/svg11.dtd">
<svg xmlns="http://www.w3.org/2000/svg" version="1.1" width="512px" height="512px" style="shape-rendering:geometricPrecision; text-rendering:geometricPrecision; image-rendering:optimizeQuality; fill-rule:evenodd; clip-rule:evenodd" xmlns:xlink="http://www.w3.org/1999/xlink">
<g><path style="opacity:0.997" fill="#38d39a" d="M 373.5,292.5 C 338.768,293.952 305.102,288.785 272.5,277C 248.015,267.315 227.015,252.815 209.5,233.5C 216.472,230.919 222.638,226.919 228,221.5C 232.303,212.619 229.47,208.453 219.5,209C 213.943,215.446 206.943,219.279 198.5,220.5C 191.345,207.845 185.511,194.512 181,180.5C 179.08,171.892 177.58,163.225 176.5,154.5C 184.039,149.557 192.372,147.723 201.5,149C 207.676,150.933 213.676,153.099 219.5,155.5C 223.993,155.345 226.66,153.011 227.5,148.5C 227.06,145.786 225.726,143.62 223.5,142C 208.447,133.04 192.78,131.54 176.5,137.5C 177.171,114.121 183.504,92.4548 195.5,72.5C 232.183,59.0241 269.183,58.1907 306.5,70C 331.908,79.1359 357.574,87.4692 383.5,95C 403.587,99.6792 423.921,102.679 444.5,104C 468.974,113.115 479.474,130.615 476,156.5C 460.898,205.587 433.732,246.42 394.5,279C 387.868,284.144 380.868,288.644 373.5,292.5 Z"/></g>
<g><path style="opacity:1" fill="#01c072" d="M 195.5,72.5 C 183.504,92.4548 177.171,114.121 176.5,137.5C 148.078,152.249 138.911,174.916 149,205.5C 162.173,229.835 182.34,239.169 209.5,233.5C 227.015,252.815 248.015,267.315 272.5,277C 305.102,288.785 338.768,293.952 373.5,292.5C 352.491,305.83 329.824,315.663 305.5,322C 270.14,332.593 234.473,333.927 198.5,326C 150.945,313.277 119.945,283.444 105.5,236.5C 76.4373,232.535 48.7706,224.035 22.5,211C 8.30395,198.621 6.97062,184.954 18.5,170C 25.7828,163.922 34.1161,161.922 43.5,164C 62.0746,173.692 81.7413,179.858 102.5,182.5C 112.636,128.042 143.636,91.3753 195.5,72.5 Z"/></g>
<g><path style="opacity:1" fill="#fcfefd" d="M 176.5,154.5 C 157.985,168.247 154.485,185.247 166,205.5C 174.157,216.329 184.99,221.329 198.5,220.5C 206.943,219.279 213.943,215.446 219.5,209C 229.47,208.453 232.303,212.619 228,221.5C 222.638,226.919 216.472,230.919 209.5,233.5C 182.34,239.169 162.173,229.835 149,205.5C 138.911,174.916 148.078,152.249 176.5,137.5C 192.78,131.54 208.447,133.04 223.5,142C 225.726,143.62 227.06,145.786 227.5,148.5C 226.66,153.011 223.993,155.345 219.5,155.5C 213.676,153.099 207.676,150.933 201.5,149C 192.372,147.723 184.039,149.557 176.5,154.5 Z"/></g>
<g><path style="opacity:1" fill="#fcfefd" d="M 287.5,133.5 C 318.481,133.391 337.314,148.391 344,178.5C 344.855,209.649 330.022,228.482 299.5,235C 268.303,235.798 249.47,220.965 243,190.5C 242.353,159.323 257.186,140.323 287.5,133.5 Z"/></g>
<g><path style="opacity:1" fill="#3ad39a" d="M 286.5,148.5 C 308.152,147.334 322.318,157.001 329,177.5C 330.982,197.375 322.815,211.208 304.5,219C 282.831,223.749 267.664,215.915 259,195.5C 254.789,171.913 263.956,156.246 286.5,148.5 Z"/></g>
<g><path style="opacity:1" fill="#09c074" d="M 176.5,154.5 C 177.58,163.225 179.08,171.892 181,180.5C 185.511,194.512 191.345,207.845 198.5,220.5C 184.99,221.329 174.157,216.329 166,205.5C 154.485,185.247 157.985,168.247 176.5,154.5 Z"/></g>
<g><path style="opacity:1" fill="#fcfefd" d="M 376.5,164.5 C 388.799,162.084 397.632,166.418 403,177.5C 403.839,182.921 403.506,188.254 402,193.5C 397.912,201.347 393.079,208.681 387.5,215.5C 391.796,216.328 396.129,216.828 400.5,217C 405.291,218.412 407.124,221.579 406,226.5C 405.167,228.667 403.667,230.167 401.5,231C 390.833,231.667 380.167,231.667 369.5,231C 363.931,227.486 363.098,222.986 367,217.5C 375.512,207.161 383.012,196.161 389.5,184.5C 387.677,178.508 384.177,177.175 379,180.5C 377.071,188.821 372.404,191.154 365,187.5C 362.491,181.246 363.491,175.58 368,170.5C 370.736,168.248 373.569,166.248 376.5,164.5 Z"/></g>
<g><path style="opacity:0.95" fill="#00a45a" d="M -0.5,333.5 C -0.5,330.833 -0.5,328.167 -0.5,325.5C 11.6399,304.563 23.8066,283.563 36,262.5C 39.6435,254.961 44.8102,253.627 51.5,258.5C 52.0983,259.795 52.5983,261.128 53,262.5C 54.6148,284.878 56.6148,307.211 59,329.5C 67.3333,314.5 75.6667,299.5 84,284.5C 88.369,280.621 92.7024,280.621 97,284.5C 97.923,286.034 98.423,287.701 98.5,289.5C 97.2301,294.044 95.3967,298.377 93,302.5C 82.7468,320.004 72.7468,337.671 63,355.5C 61.5422,357.96 59.7089,360.127 57.5,362C 52.0633,363.655 47.8966,362.155 45,357.5C 42.8348,335.185 40.8348,312.852 39,290.5C 30.4142,304.669 22.0809,319.003 14,333.5C 9.17064,338.768 4.33731,338.768 -0.5,333.5 Z"/></g>
<g><path style="opacity:0.945" fill="#00a45a" d="M 511.5,317.5 C 511.5,320.167 511.5,322.833 511.5,325.5C 504.97,333.355 498.303,341.188 491.5,349C 488.5,351 485.5,351 482.5,349C 462.833,332.667 443.167,316.333 423.5,300C 419.231,295.01 419.564,290.344 424.5,286C 427.167,285.333 429.833,285.333 432.5,286C 450.241,300.953 468.074,315.786 486,330.5C 490.5,325.333 495,320.167 499.5,315C 504.145,312.696 508.145,313.529 511.5,317.5 Z"/></g>
<g><path style="opacity:0.949" fill="#00a45a" d="M 115.5,314.5 C 126.93,319.37 138.264,324.536 149.5,330C 152.769,333.453 153.269,337.286 151,341.5C 149.278,343.444 147.111,344.444 144.5,344.5C 136.047,341.514 127.88,337.847 120,333.5C 116.689,339.954 113.523,346.454 110.5,353C 117.414,356.526 124.414,359.86 131.5,363C 135.5,367.333 135.5,371.667 131.5,376C 129.966,376.923 128.299,377.423 126.5,377.5C 119.507,375.505 112.84,372.672 106.5,369C 105.5,368.333 104.5,368.333 103.5,369C 100.308,374.912 97.3081,380.912 94.5,387C 102.745,391.039 110.911,395.206 119,399.5C 122.012,409.154 118.512,413.32 108.5,412C 98.3779,407.439 88.3779,402.606 78.5,397.5C 76.9702,395.774 75.9702,393.774 75.5,391.5C 86.1163,366.933 97.283,342.599 109,318.5C 110.792,316.372 112.958,315.039 115.5,314.5 Z"/></g>
<g><path style="opacity:0.952" fill="#00a45a" d="M 399.5,318.5 C 403.131,318.16 406.464,318.994 409.5,321C 430.327,335.581 451.327,349.914 472.5,364C 480.059,371.496 478.893,376.996 469,380.5C 463.179,377.924 457.845,374.591 453,370.5C 443.336,377.339 433.836,384.339 424.5,391.5C 425.988,396.451 427.321,401.451 428.5,406.5C 427.282,413.282 423.282,415.782 416.5,414C 415.333,412.833 414.167,411.667 413,410.5C 405.853,383.245 399.02,355.912 392.5,328.5C 392.898,323.673 395.231,320.339 399.5,318.5 Z M 413.5,344.5 C 422.119,349.482 430.452,354.982 438.5,361C 432.755,365.289 426.921,369.456 421,373.5C 417.728,364.079 415.228,354.412 413.5,344.5 Z"/></g>
<g><path style="opacity:0.952" fill="#00a45a" d="M 347.5,343.5 C 373.061,342.355 384.227,354.355 381,379.5C 378.311,386.857 373.478,392.357 366.5,396C 375.167,401.667 383.833,407.333 392.5,413C 396.918,416.756 397.585,421.09 394.5,426C 392.086,427.885 389.419,428.552 386.5,428C 374.527,421.011 362.86,413.511 351.5,405.5C 351.167,406 350.833,406.5 350.5,407C 353.699,415.951 355.532,425.118 356,434.5C 353.089,438.277 349.256,439.444 344.5,438C 342.951,436.786 341.785,435.286 341,433.5C 334.165,408.161 327.332,382.828 320.5,357.5C 321.214,355.189 322.214,353.022 323.5,351C 331.607,348.48 339.607,345.98 347.5,343.5 Z M 350.5,359.5 C 360.695,358.869 365.861,363.536 366,373.5C 365.117,376.102 363.617,378.269 361.5,380C 356.115,382.739 350.449,384.573 344.5,385.5C 342.623,377.871 340.956,370.204 339.5,362.5C 343.397,361.945 347.063,360.945 350.5,359.5 Z"/></g>
<g><path style="opacity:0.946" fill="#00a45a" d="M 171.5,344.5 C 177.814,343.988 181.148,346.822 181.5,353C 177.248,371.759 172.581,390.426 167.5,409C 172.372,424.41 182.372,429.076 197.5,423C 199.333,421.833 200.833,420.333 202,418.5C 207.667,399.167 213.333,379.833 219,360.5C 226.162,356.554 230.995,358.387 233.5,366C 228.402,385.959 222.902,405.793 217,425.5C 209.921,436.458 199.755,441.792 186.5,441.5C 165.931,440.221 154.264,429.387 151.5,409C 155.958,388.667 161.125,368.5 167,348.5C 168.397,346.93 169.897,345.596 171.5,344.5 Z"/></g>
<g><path style="opacity:0.939" fill="#00a45b" d="M 252.5,357.5 C 269.17,357.333 285.837,357.5 302.5,358C 307.833,362.667 307.833,367.333 302.5,372C 296.928,373.351 291.262,373.851 285.5,373.5C 285.667,396.836 285.5,420.169 285,443.5C 280.42,451.067 275.42,451.401 270,444.5C 269.5,420.836 269.333,397.169 269.5,373.5C 262.939,374.081 256.605,373.248 250.5,371C 247.409,365.799 248.075,361.299 252.5,357.5 Z"/></g>
</svg>
